<svg width="22" height="21" viewBox="0 0 22 21" fill="none" xmlns="http://www.w3.org/2000/svg">
<g id="Icon">
<path id="Vector" d="M8.27262 20C8.77469 20 9.18171 19.5949 9.18171 19.0952C9.18171 18.5956 8.77469 18.1905 8.27262 18.1905C7.77054 18.1905 7.36353 18.5956 7.36353 19.0952C7.36353 19.5949 7.77054 20 8.27262 20Z" fill="black" stroke="black" stroke-width="2" stroke-linecap="round" stroke-linejoin="round"/>
<path id="Vector_2" d="M18.2726 20C18.7747 20 19.1817 19.5949 19.1817 19.0952C19.1817 18.5956 18.7747 18.1905 18.2726 18.1905C17.7705 18.1905 17.3635 18.5956 17.3635 19.0952C17.3635 19.5949 17.7705 20 18.2726 20Z" fill="black" stroke="black" stroke-width="2" stroke-linecap="round" stroke-linejoin="round"/>
<path id="Vector_3" d="M1 1H4.63636L7.07273 13.1148C7.15586 13.5313 7.38355 13.9055 7.71595 14.1718C8.04835 14.4381 8.46427 14.5796 8.89091 14.5714H17.7273C18.1539 14.5796 18.5698 14.4381 18.9022 14.1718C19.2346 13.9055 19.4623 13.5313 19.5455 13.1148L21 5.52381H5.54545" stroke="black" stroke-width="2" stroke-linecap="round" stroke-linejoin="round"/>
</g>
</svg>
